<mxfile host="app.diagrams.net" agent="Mozilla/5.0 (Macintosh; Intel Mac OS X 10_15_7) AppleWebKit/537.36 (KHTML, like Gecko) Chrome/131.0.0.0 Safari/537.36" version="26.0.8">
  <diagram name="Page-1" id="670VF1S9xeTWydn9UHZk">
    <mxGraphModel dx="1562" dy="857" grid="1" gridSize="10" guides="1" tooltips="1" connect="1" arrows="1" fold="1" page="1" pageScale="1" pageWidth="827" pageHeight="1169" math="0" shadow="0">
      <root>
        <mxCell id="0" />
        <mxCell id="1" parent="0" />
        <mxCell id="DQA1pnny6km0yf52TErZ-46" style="edgeStyle=orthogonalEdgeStyle;rounded=0;orthogonalLoop=1;jettySize=auto;html=1;exitX=0.5;exitY=1;exitDx=0;exitDy=0;entryX=1;entryY=0.5;entryDx=0;entryDy=0;" parent="1" source="DQA1pnny6km0yf52TErZ-40" target="DQA1pnny6km0yf52TErZ-10" edge="1">
          <mxGeometry relative="1" as="geometry" />
        </mxCell>
        <mxCell id="DQA1pnny6km0yf52TErZ-40" value="" style="rounded=1;whiteSpace=wrap;html=1;shadow=0;fillColor=#fff2cc;strokeColor=#d6b656;" parent="1" vertex="1">
          <mxGeometry x="780" y="313" width="210" height="166" as="geometry" />
        </mxCell>
        <mxCell id="DQA1pnny6km0yf52TErZ-45" style="edgeStyle=orthogonalEdgeStyle;rounded=0;orthogonalLoop=1;jettySize=auto;html=1;exitX=1;exitY=0.5;exitDx=0;exitDy=0;entryX=1;entryY=0.5;entryDx=0;entryDy=0;" parent="1" source="DQA1pnny6km0yf52TErZ-39" target="DQA1pnny6km0yf52TErZ-40" edge="1">
          <mxGeometry relative="1" as="geometry" />
        </mxCell>
        <mxCell id="DQA1pnny6km0yf52TErZ-39" value="" style="rounded=1;whiteSpace=wrap;html=1;shadow=0;fillColor=#e1d5e7;strokeColor=#9673a6;" parent="1" vertex="1">
          <mxGeometry x="780" y="133" width="210" height="147" as="geometry" />
        </mxCell>
        <mxCell id="DQA1pnny6km0yf52TErZ-30" value="" style="rounded=1;whiteSpace=wrap;html=1;shadow=0;fillColor=#f8cecc;strokeColor=#b85450;" parent="1" vertex="1">
          <mxGeometry x="190" y="574" width="460" height="79" as="geometry" />
        </mxCell>
        <mxCell id="DQA1pnny6km0yf52TErZ-23" value="" style="rounded=1;whiteSpace=wrap;html=1;shadow=0;fillColor=#ffe6cc;strokeColor=#d79b00;" parent="1" vertex="1">
          <mxGeometry x="100" y="374" width="640" height="90" as="geometry" />
        </mxCell>
        <mxCell id="DQA1pnny6km0yf52TErZ-20" value="" style="rounded=1;whiteSpace=wrap;html=1;shadow=0;fillColor=#d5e8d4;strokeColor=#82b366;" parent="1" vertex="1">
          <mxGeometry x="100" y="254" width="640" height="90" as="geometry" />
        </mxCell>
        <mxCell id="DQA1pnny6km0yf52TErZ-22" style="edgeStyle=orthogonalEdgeStyle;rounded=0;orthogonalLoop=1;jettySize=auto;html=1;exitX=0;exitY=0.5;exitDx=0;exitDy=0;entryX=0;entryY=0.5;entryDx=0;entryDy=0;" parent="1" source="DQA1pnny6km0yf52TErZ-19" target="DQA1pnny6km0yf52TErZ-20" edge="1">
          <mxGeometry relative="1" as="geometry">
            <Array as="points">
              <mxPoint x="70" y="179" />
              <mxPoint x="70" y="300" />
            </Array>
          </mxGeometry>
        </mxCell>
        <mxCell id="DQA1pnny6km0yf52TErZ-48" style="edgeStyle=orthogonalEdgeStyle;rounded=0;orthogonalLoop=1;jettySize=auto;html=1;exitX=1;exitY=0.5;exitDx=0;exitDy=0;entryX=0;entryY=0.5;entryDx=0;entryDy=0;" parent="1" source="DQA1pnny6km0yf52TErZ-19" target="DQA1pnny6km0yf52TErZ-39" edge="1">
          <mxGeometry relative="1" as="geometry" />
        </mxCell>
        <mxCell id="DQA1pnny6km0yf52TErZ-19" value="" style="rounded=1;whiteSpace=wrap;html=1;shadow=0;fillColor=#dae8fc;strokeColor=#6c8ebf;" parent="1" vertex="1">
          <mxGeometry x="101" y="134" width="639" height="90" as="geometry" />
        </mxCell>
        <mxCell id="DQA1pnny6km0yf52TErZ-24" style="edgeStyle=orthogonalEdgeStyle;rounded=0;orthogonalLoop=1;jettySize=auto;html=1;exitX=0.5;exitY=1;exitDx=0;exitDy=0;entryX=0.5;entryY=0;entryDx=0;entryDy=0;" parent="1" source="DQA1pnny6km0yf52TErZ-1" target="DQA1pnny6km0yf52TErZ-7" edge="1">
          <mxGeometry relative="1" as="geometry" />
        </mxCell>
        <mxCell id="DQA1pnny6km0yf52TErZ-1" value="&lt;font style=&quot;font-size: 18px;&quot;&gt;提供對&lt;br&gt;物理限制的保障&lt;/font&gt;" style="rounded=0;whiteSpace=wrap;html=1;" parent="1" vertex="1">
          <mxGeometry x="120" y="269" width="170" height="60" as="geometry" />
        </mxCell>
        <mxCell id="DQA1pnny6km0yf52TErZ-25" style="edgeStyle=orthogonalEdgeStyle;rounded=0;orthogonalLoop=1;jettySize=auto;html=1;exitX=0.5;exitY=1;exitDx=0;exitDy=0;entryX=0.5;entryY=0;entryDx=0;entryDy=0;" parent="1" source="DQA1pnny6km0yf52TErZ-2" target="DQA1pnny6km0yf52TErZ-8" edge="1">
          <mxGeometry relative="1" as="geometry" />
        </mxCell>
        <mxCell id="DQA1pnny6km0yf52TErZ-2" value="&lt;span style=&quot;font-size: 18px;&quot;&gt;在訓練資料外的場景&lt;br&gt;仍能生成有意義的動作&lt;/span&gt;" style="rounded=0;whiteSpace=wrap;html=1;" parent="1" vertex="1">
          <mxGeometry x="320" y="269" width="199" height="60" as="geometry" />
        </mxCell>
        <mxCell id="DQA1pnny6km0yf52TErZ-26" style="edgeStyle=orthogonalEdgeStyle;rounded=0;orthogonalLoop=1;jettySize=auto;html=1;exitX=0.5;exitY=1;exitDx=0;exitDy=0;entryX=0.5;entryY=0;entryDx=0;entryDy=0;" parent="1" source="DQA1pnny6km0yf52TErZ-3" target="DQA1pnny6km0yf52TErZ-9" edge="1">
          <mxGeometry relative="1" as="geometry" />
        </mxCell>
        <mxCell id="DQA1pnny6km0yf52TErZ-3" value="&lt;span style=&quot;font-size: 18px;&quot;&gt;依據任務成本&lt;br&gt;獲得最佳化的策略&lt;/span&gt;" style="rounded=0;whiteSpace=wrap;html=1;" parent="1" vertex="1">
          <mxGeometry x="548" y="269" width="170" height="60" as="geometry" />
        </mxCell>
        <mxCell id="DQA1pnny6km0yf52TErZ-4" value="&lt;span style=&quot;font-size: 18px;&quot;&gt;建立機器人決策框架&lt;br&gt;與模擬環境的資料集&lt;/span&gt;" style="rounded=0;whiteSpace=wrap;html=1;" parent="1" vertex="1">
          <mxGeometry x="120" y="150" width="170" height="60" as="geometry" />
        </mxCell>
        <mxCell id="DQA1pnny6km0yf52TErZ-5" value="&lt;span style=&quot;font-size: 18px;&quot;&gt;發展具備物理知識的&lt;br&gt;生成模型方法&lt;/span&gt;" style="rounded=0;whiteSpace=wrap;html=1;" parent="1" vertex="1">
          <mxGeometry x="320" y="150" width="199" height="60" as="geometry" />
        </mxCell>
        <mxCell id="DQA1pnny6km0yf52TErZ-6" value="&lt;span style=&quot;font-size: 18px;&quot;&gt;對機器人決策方法&lt;br&gt;進行測試驗證&lt;/span&gt;" style="rounded=0;whiteSpace=wrap;html=1;" parent="1" vertex="1">
          <mxGeometry x="548" y="150" width="170" height="60" as="geometry" />
        </mxCell>
        <mxCell id="DQA1pnny6km0yf52TErZ-31" style="edgeStyle=orthogonalEdgeStyle;rounded=0;orthogonalLoop=1;jettySize=auto;html=1;exitX=0.5;exitY=1;exitDx=0;exitDy=0;entryX=0.5;entryY=0;entryDx=0;entryDy=0;" parent="1" source="DQA1pnny6km0yf52TErZ-7" target="DQA1pnny6km0yf52TErZ-10" edge="1">
          <mxGeometry relative="1" as="geometry">
            <Array as="points">
              <mxPoint x="205" y="472" />
              <mxPoint x="419" y="472" />
            </Array>
          </mxGeometry>
        </mxCell>
        <mxCell id="DQA1pnny6km0yf52TErZ-7" value="&lt;span style=&quot;font-size: 18px;&quot;&gt;安全與環境互動&lt;/span&gt;" style="rounded=0;whiteSpace=wrap;html=1;" parent="1" vertex="1">
          <mxGeometry x="120" y="390" width="170" height="60" as="geometry" />
        </mxCell>
        <mxCell id="DQA1pnny6km0yf52TErZ-28" style="edgeStyle=orthogonalEdgeStyle;rounded=0;orthogonalLoop=1;jettySize=auto;html=1;exitX=0.5;exitY=1;exitDx=0;exitDy=0;entryX=0.5;entryY=0;entryDx=0;entryDy=0;" parent="1" source="DQA1pnny6km0yf52TErZ-8" target="DQA1pnny6km0yf52TErZ-10" edge="1">
          <mxGeometry relative="1" as="geometry" />
        </mxCell>
        <mxCell id="DQA1pnny6km0yf52TErZ-8" value="&lt;span style=&quot;font-size: 18px;&quot;&gt;應付多元複雜&lt;br&gt;的任務與場景&lt;/span&gt;" style="rounded=0;whiteSpace=wrap;html=1;" parent="1" vertex="1">
          <mxGeometry x="319" y="390" width="200" height="60" as="geometry" />
        </mxCell>
        <mxCell id="DQA1pnny6km0yf52TErZ-32" style="edgeStyle=orthogonalEdgeStyle;rounded=0;orthogonalLoop=1;jettySize=auto;html=1;exitX=0.5;exitY=1;exitDx=0;exitDy=0;entryX=0.5;entryY=0;entryDx=0;entryDy=0;" parent="1" source="DQA1pnny6km0yf52TErZ-9" target="DQA1pnny6km0yf52TErZ-10" edge="1">
          <mxGeometry relative="1" as="geometry">
            <Array as="points">
              <mxPoint x="645" y="472" />
              <mxPoint x="419" y="472" />
            </Array>
          </mxGeometry>
        </mxCell>
        <mxCell id="DQA1pnny6km0yf52TErZ-9" value="&lt;span style=&quot;font-size: 18px;&quot;&gt;考慮成本提供服務&lt;/span&gt;&lt;br&gt;&lt;span style=&quot;font-size: 18px;&quot;&gt;降低應用普及的門檻&lt;/span&gt;" style="rounded=0;whiteSpace=wrap;html=1;" parent="1" vertex="1">
          <mxGeometry x="548" y="390" width="170" height="60" as="geometry" />
        </mxCell>
        <mxCell id="DQA1pnny6km0yf52TErZ-50" style="edgeStyle=orthogonalEdgeStyle;rounded=0;orthogonalLoop=1;jettySize=auto;html=1;exitX=0.5;exitY=1;exitDx=0;exitDy=0;entryX=0.5;entryY=0;entryDx=0;entryDy=0;" parent="1" source="DQA1pnny6km0yf52TErZ-10" target="DQA1pnny6km0yf52TErZ-30" edge="1">
          <mxGeometry relative="1" as="geometry" />
        </mxCell>
        <mxCell id="DQA1pnny6km0yf52TErZ-10" value="&lt;span style=&quot;font-size: 18px;&quot;&gt;機器人依據任務需求&lt;br&gt;與環境進行自主決策&lt;/span&gt;" style="rounded=0;whiteSpace=wrap;html=1;fillColor=#f5f5f5;fontColor=#333333;strokeColor=#666666;" parent="1" vertex="1">
          <mxGeometry x="319" y="490" width="200" height="56" as="geometry" />
        </mxCell>
        <mxCell id="DQA1pnny6km0yf52TErZ-11" value="&lt;span style=&quot;font-size: 18px;&quot;&gt;機器學習/&lt;br&gt;深度生成模型&lt;/span&gt;" style="rounded=0;whiteSpace=wrap;html=1;" parent="1" vertex="1">
          <mxGeometry x="810" y="150" width="150" height="50" as="geometry" />
        </mxCell>
        <mxCell id="DQA1pnny6km0yf52TErZ-12" value="&lt;span style=&quot;font-size: 18px;&quot;&gt;機器人&lt;/span&gt;" style="rounded=0;whiteSpace=wrap;html=1;" parent="1" vertex="1">
          <mxGeometry x="810" y="200" width="150" height="30" as="geometry" />
        </mxCell>
        <mxCell id="DQA1pnny6km0yf52TErZ-13" value="&lt;span style=&quot;font-size: 18px;&quot;&gt;控制理論&lt;/span&gt;" style="rounded=0;whiteSpace=wrap;html=1;" parent="1" vertex="1">
          <mxGeometry x="810" y="230" width="150" height="30" as="geometry" />
        </mxCell>
        <mxCell id="DQA1pnny6km0yf52TErZ-14" value="&lt;span style=&quot;font-size: 18px;&quot;&gt;慕尼黑工業大學&lt;/span&gt;" style="rounded=0;whiteSpace=wrap;html=1;" parent="1" vertex="1">
          <mxGeometry x="810" y="329" width="150" height="43" as="geometry" />
        </mxCell>
        <mxCell id="DQA1pnny6km0yf52TErZ-15" value="&lt;span style=&quot;font-size: 18px;&quot;&gt;RelAI 學程&lt;/span&gt;" style="rounded=0;whiteSpace=wrap;html=1;" parent="1" vertex="1">
          <mxGeometry x="810" y="372" width="150" height="40" as="geometry" />
        </mxCell>
        <mxCell id="DQA1pnny6km0yf52TErZ-16" value="&lt;span style=&quot;font-size: 18px;&quot;&gt;德國機器人&lt;br&gt;產業發達&lt;/span&gt;" style="rounded=0;whiteSpace=wrap;html=1;" parent="1" vertex="1">
          <mxGeometry x="810" y="412" width="150" height="50" as="geometry" />
        </mxCell>
        <mxCell id="DQA1pnny6km0yf52TErZ-17" value="&lt;span style=&quot;font-size: 18px;&quot;&gt;勞動力短缺問題&lt;/span&gt;" style="rounded=0;whiteSpace=wrap;html=1;" parent="1" vertex="1">
          <mxGeometry x="250" y="589" width="150" height="46" as="geometry" />
        </mxCell>
        <mxCell id="DQA1pnny6km0yf52TErZ-18" value="&lt;span style=&quot;font-size: 18px;&quot;&gt;高齡照護問題&lt;/span&gt;" style="rounded=0;whiteSpace=wrap;html=1;" parent="1" vertex="1">
          <mxGeometry x="440" y="589" width="150" height="46" as="geometry" />
        </mxCell>
        <mxCell id="DQA1pnny6km0yf52TErZ-33" value="&lt;font style=&quot;font-size: 20px;&quot;&gt;&lt;b style=&quot;&quot;&gt;研究目的&lt;/b&gt;&lt;/font&gt;" style="text;html=1;align=center;verticalAlign=middle;resizable=0;points=[];autosize=1;strokeColor=none;fillColor=none;" parent="1" vertex="1">
          <mxGeometry x="91" y="100" width="100" height="40" as="geometry" />
        </mxCell>
        <mxCell id="DQA1pnny6km0yf52TErZ-34" value="&lt;span style=&quot;font-size: 20px;&quot;&gt;&lt;b&gt;解決問題&lt;/b&gt;&lt;/span&gt;" style="text;html=1;align=center;verticalAlign=middle;resizable=0;points=[];autosize=1;strokeColor=none;fillColor=none;" parent="1" vertex="1">
          <mxGeometry x="91" y="223" width="100" height="40" as="geometry" />
        </mxCell>
        <mxCell id="DQA1pnny6km0yf52TErZ-35" value="&lt;span style=&quot;font-size: 20px;&quot;&gt;&lt;b&gt;研究重要性&lt;/b&gt;&lt;/span&gt;" style="text;html=1;align=center;verticalAlign=middle;resizable=0;points=[];autosize=1;strokeColor=none;fillColor=none;" parent="1" vertex="1">
          <mxGeometry x="90" y="341.5" width="120" height="40" as="geometry" />
        </mxCell>
        <mxCell id="DQA1pnny6km0yf52TErZ-36" value="&lt;span style=&quot;font-size: 20px;&quot;&gt;&lt;b&gt;台灣面臨問題&lt;/b&gt;&lt;/span&gt;" style="text;html=1;align=center;verticalAlign=middle;resizable=0;points=[];autosize=1;strokeColor=none;fillColor=none;" parent="1" vertex="1">
          <mxGeometry x="180" y="542" width="140" height="40" as="geometry" />
        </mxCell>
        <mxCell id="DQA1pnny6km0yf52TErZ-41" value="&lt;font style=&quot;font-size: 20px;&quot;&gt;&lt;b style=&quot;&quot;&gt;所需知識&lt;/b&gt;&lt;/font&gt;&lt;b style=&quot;font-size: 20px;&quot;&gt;領域&lt;/b&gt;" style="text;html=1;align=center;verticalAlign=middle;resizable=0;points=[];autosize=1;strokeColor=none;fillColor=none;" parent="1" vertex="1">
          <mxGeometry x="770" y="100" width="140" height="40" as="geometry" />
        </mxCell>
        <mxCell id="DQA1pnny6km0yf52TErZ-42" value="&lt;span style=&quot;font-size: 20px;&quot;&gt;&lt;b&gt;我的研究環境&lt;/b&gt;&lt;/span&gt;" style="text;html=1;align=center;verticalAlign=middle;resizable=0;points=[];autosize=1;strokeColor=none;fillColor=none;" parent="1" vertex="1">
          <mxGeometry x="770" y="279" width="140" height="40" as="geometry" />
        </mxCell>
      </root>
    </mxGraphModel>
  </diagram>
</mxfile>
